<svg width="66" height="31" viewBox="0 0 66 31" fill="none" xmlns="http://www.w3.org/2000/svg">
<circle cx="50.5" cy="15.5" r="15.5" fill="black"/>
<rect x="15" width="35" height="31" fill="black"/>
<circle cx="15.5" cy="15.5" r="15.5" fill="black"/>
<circle cx="50.5" cy="15.5" r="9.5" fill="#F0F1F2"/>
<g clip-path="url(#clip0_50_29)">
<path d="M15.5 20.8438C18.4513 20.8438 20.8438 18.4513 20.8438 15.5C20.8438 12.5487 18.4513 10.1562 15.5 10.1562C12.5488 10.1562 10.1563 12.5487 10.1563 15.5C10.1563 18.4513 12.5488 20.8438 15.5 20.8438Z" fill="#F0F1F2"/>
<path d="M16.3907 8.45753V7.1875C16.3907 6.95129 16.2968 6.72476 16.1298 6.55773C15.9628 6.39071 15.7363 6.29688 15.5 6.29688C15.2638 6.29688 15.0373 6.39071 14.8703 6.55773C14.7033 6.72476 14.6094 6.95129 14.6094 7.1875V8.45753C14.6094 8.69374 14.7033 8.92027 14.8703 9.0873C15.0373 9.25432 15.2638 9.34816 15.5 9.34816C15.7363 9.34816 15.9628 9.25432 16.1298 9.0873C16.2968 8.92027 16.3907 8.69374 16.3907 8.45753V8.45753ZM11.1502 11.1496C11.3172 10.9826 11.411 10.7561 11.411 10.5199C11.411 10.2838 11.3172 10.0573 11.1502 9.89025L10.2513 8.9925C10.1695 8.90604 10.0711 8.83685 9.96213 8.78904C9.85311 8.74122 9.73561 8.71575 9.61658 8.71412C9.49755 8.7125 9.3794 8.73475 9.26911 8.77956C9.15883 8.82438 9.05865 8.89085 8.97449 8.97505C8.89033 9.05924 8.82391 9.15945 8.77915 9.26976C8.73438 9.38007 8.71219 9.49823 8.71387 9.61726C8.71555 9.73629 8.74108 9.85377 8.78895 9.96277C8.83681 10.0718 8.90604 10.1701 8.99255 10.2518L9.8903 11.1496C9.97293 11.2325 10.0711 11.2983 10.1792 11.3432C10.2873 11.388 10.4032 11.4111 10.5203 11.4111C10.6373 11.4111 10.7532 11.388 10.8613 11.3432C10.9694 11.2983 11.0676 11.2325 11.1502 11.1496ZM7.18755 16.3906H8.45698C8.69319 16.3906 8.91973 16.2968 9.08675 16.1298C9.25377 15.9627 9.34761 15.7362 9.34761 15.5C9.34761 15.2638 9.25377 15.0373 9.08675 14.8702C8.91973 14.7032 8.69319 14.6094 8.45698 14.6094H7.18755C6.95134 14.6094 6.7248 14.7032 6.55778 14.8702C6.39075 15.0373 6.29692 15.2638 6.29692 15.5C6.29692 15.7362 6.39075 15.9627 6.55778 16.1298C6.7248 16.2968 6.95134 16.3906 7.18755 16.3906V16.3906ZM8.99255 22.0075C9.07509 22.0905 9.1732 22.1563 9.28126 22.2012C9.38932 22.2461 9.50519 22.2693 9.62222 22.2693C9.73924 22.2693 9.85511 22.2461 9.96317 22.2012C10.0712 22.1563 10.1694 22.0905 10.2519 22.0075L11.1496 21.1097C11.2371 21.0282 11.3073 20.9299 11.356 20.8206C11.4047 20.7114 11.4309 20.5935 11.433 20.4739C11.4351 20.3543 11.4131 20.2355 11.3683 20.1246C11.3235 20.0137 11.2568 19.913 11.1722 19.8284C11.0877 19.7438 10.9869 19.6771 10.876 19.6324C10.7651 19.5876 10.6464 19.5656 10.5268 19.5677C10.4072 19.5698 10.2892 19.596 10.18 19.6446C10.0708 19.6933 9.97243 19.7635 9.89089 19.851L8.99255 20.7476C8.90978 20.8303 8.84413 20.9285 8.79934 21.0366C8.75454 21.1447 8.73149 21.2605 8.73149 21.3775C8.73149 21.4945 8.75454 21.6104 8.79934 21.7185C8.84413 21.8266 8.90978 21.9248 8.99255 22.0075V22.0075ZM14.6094 22.5425V23.8125C14.6094 24.0487 14.7033 24.2752 14.8703 24.4423C15.0373 24.6093 15.2638 24.7031 15.5 24.7031C15.7363 24.7031 15.9628 24.6093 16.1298 24.4423C16.2968 24.2752 16.3907 24.0487 16.3907 23.8125V22.5425C16.3907 22.3063 16.2968 22.0797 16.1298 21.9127C15.9628 21.7457 15.7363 21.6518 15.5 21.6518C15.2638 21.6518 15.0373 21.7457 14.8703 21.9127C14.7033 22.0797 14.6094 22.3063 14.6094 22.5425V22.5425ZM20.7482 22.0075C20.8307 22.0905 20.9289 22.1563 21.0369 22.2012C21.145 22.2461 21.2608 22.2693 21.3779 22.2693C21.4949 22.2693 21.6108 22.2461 21.7188 22.2012C21.8269 22.1563 21.925 22.0905 22.0075 22.0075C22.1745 21.8405 22.2683 21.614 22.2683 21.3778C22.2683 21.1417 22.1745 20.9152 22.0075 20.7482L21.1098 19.8504C21.028 19.7639 20.9296 19.6948 20.8206 19.6469C20.7116 19.5991 20.5941 19.5737 20.4751 19.572C20.356 19.5704 20.2379 19.5927 20.1276 19.6375C20.0173 19.6823 19.9171 19.7488 19.833 19.833C19.7488 19.9171 19.6824 20.0174 19.6376 20.1277C19.5929 20.238 19.5707 20.3561 19.5724 20.4752C19.5741 20.5942 19.5996 20.7117 19.6474 20.8207C19.6953 20.9297 19.7645 21.028 19.851 21.1097L20.7476 22.0075H20.7482ZM23.8125 14.6094H22.5425C22.3063 14.6094 22.0798 14.7032 21.9127 14.8702C21.7457 15.0373 21.6519 15.2638 21.6519 15.5C21.6519 15.7362 21.7457 15.9627 21.9127 16.1298C22.0798 16.2968 22.3063 16.3906 22.5425 16.3906H23.8125C24.0488 16.3906 24.2753 16.2968 24.4423 16.1298C24.6093 15.9627 24.7032 15.7362 24.7032 15.5C24.7032 15.2638 24.6093 15.0373 24.4423 14.8702C24.2753 14.7032 24.0488 14.6094 23.8125 14.6094ZM22.0075 8.9925C21.8405 8.82553 21.614 8.73174 21.3779 8.73174C21.1417 8.73174 20.9152 8.82553 20.7482 8.9925L19.8505 9.89025C19.764 9.97207 19.6948 10.0704 19.647 10.1794C19.5992 10.2884 19.5737 10.4059 19.5721 10.525C19.5704 10.644 19.5927 10.7621 19.6375 10.8724C19.6823 10.9827 19.7488 11.0829 19.833 11.1671C19.9172 11.2512 20.0174 11.3176 20.1277 11.3624C20.238 11.4072 20.3562 11.4294 20.4752 11.4277C20.5942 11.426 20.7117 11.4005 20.8207 11.3526C20.9297 11.3047 21.028 11.2355 21.1098 11.149L22.0075 10.2524C22.0903 10.1697 22.156 10.0715 22.2008 9.96343C22.2456 9.85534 22.2686 9.73948 22.2686 9.62247C22.2686 9.50546 22.2456 9.3896 22.2008 9.28151C22.156 9.17342 22.0903 9.07521 22.0075 8.9925V8.9925Z" fill="#F0F1F2"/>
</g>
<defs>
<clipPath id="clip0_50_29">
<rect width="19" height="19" fill="white" transform="translate(6.00005 6)"/>
</clipPath>
</defs>
</svg>
