<svg width="300" height="300" viewBox="0 0 300 300" fill="none" xmlns="http://www.w3.org/2000/svg">
<path d="M0 40C0 17.9086 17.9086 0 40 0H260C282.091 0 300 17.9086 300 40V260C300 282.091 282.091 300 260 300H40C17.9086 300 0 282.091 0 260V40Z" fill="black"/>
<path d="M78.0805 225.802H51V74.1984H78.0805V98.8259C88.9966 80.2753 105.371 71 127.203 71C143.367 71 156.173 76.0108 165.62 86.0324C175.066 96.054 179.79 109.807 179.79 127.291V225.802H152.394V135.607C152.394 122.387 149.455 112.366 143.577 105.543C137.699 98.7193 129.302 95.3077 118.386 95.3077C106.84 95.3077 97.1837 99.6788 89.4165 108.421C81.8591 116.95 78.0805 128.358 78.0805 142.644V225.802Z" fill="#F0F1F2"/>
<path d="M232.051 229C227.223 229 223.025 227.294 219.456 223.883C216.097 220.258 214.418 215.993 214.418 211.089C214.418 206.185 216.097 202.027 219.456 198.615C223.025 194.991 227.223 193.178 232.051 193.178C236.88 193.178 241.078 194.991 244.647 198.615C248.216 202.027 250 206.185 250 211.089C250 215.993 248.216 220.258 244.647 223.883C241.078 227.294 236.88 229 232.051 229Z" fill="#F0F1F2"/>
</svg>
