<svg width="60" height="29" viewBox="0 0 60 29" fill="none" xmlns="http://www.w3.org/2000/svg">
<circle cx="45.9093" cy="14.5" r="14.0909" fill="#F0F1F2"/>
<rect x="13.6365" y="0.409119" width="31.8182" height="28.1818" fill="#F0F1F2"/>
<circle cx="14.091" cy="14.5" r="14.0909" fill="#F0F1F2"/>
<circle cx="14.0911" cy="14.5" r="8.63636" fill="black"/>
<g clip-path="url(#clip0_94_863)">
<path d="M44.8405 6.48974C44.6461 6.20908 44.3061 6.07414 43.9768 6.15508C40.1876 7.08888 37.5427 10.4733 37.5427 14.3866C37.5427 19.0611 41.3481 22.8665 46.0226 22.8665C49.9359 22.8665 53.3203 20.2216 54.2541 16.4324C54.335 16.1031 54.2001 15.763 53.9194 15.5687C53.6442 15.3798 53.2717 15.3852 52.9964 15.5795C51.9978 16.2866 50.8265 16.6645 49.6066 16.6645C46.3734 16.6645 43.7447 14.0358 43.7447 10.8025C43.7447 9.58266 44.1226 8.41133 44.8297 7.41277C45.024 7.13748 45.0294 6.76503 44.8405 6.48974Z" fill="black"/>
</g>
<defs>
<clipPath id="clip0_94_863">
<rect width="17.2727" height="17.2727" fill="white" transform="translate(37.2728 5.86365)"/>
</clipPath>
</defs>
</svg>
