<svg width="26" height="28" viewBox="0 0 26 28" fill="none" xmlns="http://www.w3.org/2000/svg">
<path d="M19.4929 10.9096L23.4805 12.9347C23.6821 13.0407 23.8507 13.1998 23.9685 13.3948C24.0862 13.5897 24.1485 13.8131 24.1485 14.0409C24.1485 14.2686 24.0862 14.4921 23.9685 14.6871C23.8507 14.882 23.6821 15.0411 23.4805 15.1472L13.643 20.1472C13.4285 20.2579 13.1906 20.3157 12.9492 20.3157C12.7078 20.3157 12.47 20.2579 12.2555 20.1472L2.41788 15.1472C2.21631 15.0411 2.04763 14.882 1.9299 14.6871C1.81217 14.4921 1.75 14.2686 1.75 14.0409C1.75 13.8131 1.81217 13.5897 1.9299 13.3948C2.04763 13.1998 2.21631 13.0407 2.41788 12.9347L6.40546 10.9096M19.4929 17.1596L23.4805 19.1847C23.6821 19.2907 23.8507 19.4498 23.9685 19.6448C24.0862 19.8397 24.1485 20.0631 24.1485 20.2909C24.1485 20.5186 24.0862 20.7421 23.9685 20.9371C23.8507 21.132 23.6821 21.2911 23.4805 21.3972L13.643 26.3972C13.4285 26.5079 13.1906 26.5657 12.9492 26.5657C12.7078 26.5657 12.47 26.5079 12.2555 26.3972L2.41788 21.3972C2.21631 21.2911 2.04763 21.132 1.9299 20.9371C1.81217 20.7421 1.75 20.5186 1.75 20.2909C1.75 20.0631 1.81217 19.8397 1.9299 19.6448C2.04763 19.4498 2.21631 19.2907 2.41788 19.1847L6.40546 17.1596M12.2555 13.8721L2.41788 8.87213C2.21631 8.76609 2.04763 8.60697 1.9299 8.412C1.81217 8.21704 1.75 7.99362 1.75 7.76587C1.75 7.53811 1.81217 7.31466 1.9299 7.1197C2.04763 6.92473 2.21631 6.76565 2.41788 6.65961L12.2555 1.65961C12.4717 1.55457 12.7088 1.5 12.9492 1.5C13.1895 1.5 13.4268 1.55457 13.643 1.65961L23.4805 6.65961C23.6821 6.76565 23.8507 6.92473 23.9685 7.1197C24.0862 7.31466 24.1485 7.53811 24.1485 7.76587C24.1485 7.99362 24.0862 8.21704 23.9685 8.412C23.8507 8.60697 23.6821 8.76609 23.4805 8.87213L13.643 13.8721C13.4285 13.9828 13.1906 14.0406 12.9492 14.0406C12.7078 14.0406 12.47 13.9828 12.2555 13.8721Z" stroke="white" stroke-opacity="0.9" stroke-width="2" stroke-linejoin="round"/>
</svg>
