<svg width="48" height="48" viewBox="0 0 48 48" fill="none" xmlns="http://www.w3.org/2000/svg">
<path d="M9 42C8.16667 42 7.45833 41.7083 6.875 41.125C6.29167 40.5417 6 39.8333 6 39V18C6 14.6667 7.16667 11.8333 9.5 9.5C11.8333 7.16667 14.6667 6 18 6H30C33.3333 6 36.1667 7.16667 38.5 9.5C40.8333 11.8333 42 14.6667 42 18V39C42 39.8333 41.7083 40.5417 41.125 41.125C40.5417 41.7083 39.8333 42 39 42H9ZM9 39H39V18C39 15.5 38.125 13.375 36.375 11.625C34.625 9.875 32.5 9 30 9H18C15.5 9 13.375 9.875 11.625 11.625C9.875 13.375 9 15.5 9 18V39ZM18 23.5C17.0333 23.5 16.2083 23.1583 15.525 22.475C14.8417 21.7917 14.5 20.9667 14.5 20C14.5 19.0333 14.8417 18.2083 15.525 17.525C16.2083 16.8417 17.0333 16.5 18 16.5C18.9667 16.5 19.7917 16.8417 20.475 17.525C21.1583 18.2083 21.5 19.0333 21.5 20C21.5 20.9667 21.1583 21.7917 20.475 22.475C19.7917 23.1583 18.9667 23.5 18 23.5ZM30 23.5C29.0333 23.5 28.2083 23.1583 27.525 22.475C26.8417 21.7917 26.5 20.9667 26.5 20C26.5 19.0333 26.8417 18.2083 27.525 17.525C28.2083 16.8417 29.0333 16.5 30 16.5C30.9667 16.5 31.7917 16.8417 32.475 17.525C33.1583 18.2083 33.5 19.0333 33.5 20C33.5 20.9667 33.1583 21.7917 32.475 22.475C31.7917 23.1583 30.9667 23.5 30 23.5ZM14.5 39V33.5C14.5 32.6667 14.7917 31.9583 15.375 31.375C15.9583 30.7917 16.6667 30.5 17.5 30.5H30.5C31.3333 30.5 32.0417 30.7917 32.625 31.375C33.2083 31.9583 33.5 32.6667 33.5 33.5V39H30.5V33.5H25.5V39H22.5V33.5H17.5V39H14.5ZM9 39H39H9Z" fill="white"/>
</svg>
