<svg width="51" height="40" viewBox="0 0 51 40" fill="none" xmlns="http://www.w3.org/2000/svg">
<path d="M7.24011 39H0.360107V1.07997H7.24011V7.23997C10.0134 2.59997 14.1734 0.279968 19.7201 0.279968C23.8268 0.279968 27.0801 1.5333 29.4801 4.03997C31.8801 6.54664 33.0801 9.98664 33.0801 14.36V39H26.1201V16.44C26.1201 13.1333 25.3734 10.6266 23.8801 8.91997C22.3868 7.2133 20.2534 6.35997 17.4801 6.35997C14.5468 6.35997 12.0934 7.4533 10.1201 9.63997C8.20011 11.7733 7.24011 14.6266 7.24011 18.2V39Z" fill="#F0F1F2"/>
<path d="M46.3576 39.8C45.1309 39.8 44.0643 39.3733 43.1576 38.52C42.3043 37.6133 41.8776 36.5466 41.8776 35.32C41.8776 34.0933 42.3043 33.0533 43.1576 32.2C44.0643 31.2933 45.1309 30.84 46.3576 30.84C47.5843 30.84 48.6509 31.2933 49.5576 32.2C50.4643 33.0533 50.9176 34.0933 50.9176 35.32C50.9176 36.5466 50.4643 37.6133 49.5576 38.52C48.6509 39.3733 47.5843 39.8 46.3576 39.8Z" fill="#F0F1F2"/>
</svg>
