<svg width="72" height="39" viewBox="0 0 72 39" fill="none" xmlns="http://www.w3.org/2000/svg">
<path d="M6.71571 38.0073H0V0.992748H6.71571V7.00566C9.42282 2.47646 13.4835 0.211853 18.8977 0.211853C22.9063 0.211853 26.082 1.43526 28.4247 3.88207C30.7673 6.32889 31.9387 9.68674 31.9387 13.9557V38.0073H25.1449V15.986C25.1449 12.7583 24.416 10.3115 22.9584 8.64555C21.5007 6.97963 19.4183 6.14668 16.7112 6.14668C13.8479 6.14668 11.4532 7.2139 9.52694 9.34836C7.65279 11.4307 6.71571 14.216 6.71571 17.704V38.0073ZM40.5298 27.4652C40.5298 23.7689 41.7792 20.9317 44.2782 18.9534C46.777 16.9751 50.1089 15.986 54.2736 15.986C57.0328 15.986 59.6618 16.3764 62.1607 17.1573L65.5186 18.0944V14.268C65.5186 11.613 64.6596 9.55659 62.9416 8.09892C61.2757 6.64124 59.0371 5.91241 56.2259 5.91241C53.5708 5.91241 51.3843 6.58918 49.6663 7.94274C47.9484 9.2963 46.8551 11.1704 46.3866 13.5652L40.2955 11.8472C41.0243 8.2551 42.7944 5.41784 45.6057 3.33544C48.4169 1.25305 51.957 0.211853 56.2259 0.211853C61.2236 0.211853 65.1021 1.51335 67.8612 4.11634C70.6204 6.66727 72 10.2334 72 14.8146V38.0073H65.5186V32.1506C64.5815 34.1809 62.9676 35.7947 60.677 36.9921C58.3864 38.1895 55.7573 38.7882 52.7899 38.7882C49.354 38.7882 46.4386 37.773 44.0439 35.7427C41.7011 33.6082 40.5298 30.8491 40.5298 27.4652ZM65.5186 24.1854V23.4045L62.0826 22.3893C59.5317 21.6084 57.241 21.218 55.2107 21.218C52.816 21.218 50.9158 21.7386 49.5102 22.7798C48.1566 23.7689 47.4798 25.2006 47.4798 27.0747C47.4798 28.8448 48.1306 30.2504 49.4321 31.2916C50.7856 32.3328 52.6598 32.8534 55.0545 32.8534C58.1781 32.8534 60.703 32.0725 62.6292 30.5107C64.5555 28.9489 65.5186 26.8405 65.5186 24.1854Z" fill="black"/>
</svg>
