<svg width="34" height="27" viewBox="0 0 34 27" fill="none" xmlns="http://www.w3.org/2000/svg">
<path d="M4.62681 26.4534H0V0.546558H4.62681V4.75506C6.49188 1.58502 9.28949 0 13.0196 0C15.7814 0 17.9692 0.856276 19.5832 2.56883C21.1973 4.28138 22.0043 6.63158 22.0043 9.61943V26.4534H17.3236V11.0405C17.3236 8.78138 16.8215 7.06883 15.8172 5.90283C14.813 4.73684 13.3783 4.15385 11.5132 4.15385C9.54056 4.15385 7.89069 4.90081 6.56362 6.39474C5.27241 7.85223 4.62681 9.80162 4.62681 12.2429V26.4534Z" fill="#F0F1F2"/>
<path d="M30.9334 27C30.1085 27 29.3911 26.7085 28.7814 26.1255C28.2075 25.5061 27.9206 24.7773 27.9206 23.9393C27.9206 23.1012 28.2075 22.3907 28.7814 21.8077C29.3911 21.1883 30.1085 20.8785 30.9334 20.8785C31.7583 20.8785 32.4757 21.1883 33.0854 21.8077C33.6951 22.3907 34 23.1012 34 23.9393C34 24.7773 33.6951 25.5061 33.0854 26.1255C32.4757 26.7085 31.7583 27 30.9334 27Z" fill="#F0F1F2"/>
</svg>
