<svg width="50" height="27" viewBox="0 0 50 27" fill="none" xmlns="http://www.w3.org/2000/svg">
<path d="M4.66369 26.3523H0V0.647757H4.66369V4.82339C6.54363 1.67811 9.36353 0.105469 13.1234 0.105469C15.9072 0.105469 18.1125 0.955058 19.7393 2.65423C21.3662 4.35341 22.1796 6.68525 22.1796 9.64977V26.3523H17.4617V11.0597C17.4617 8.81826 16.9556 7.11909 15.9433 5.9622C14.931 4.80532 13.4849 4.22687 11.605 4.22687C9.6166 4.22687 7.95358 4.968 6.61593 6.45026C5.31444 7.89637 4.66369 9.83054 4.66369 12.2528V26.3523ZM28.1457 19.0314C28.1457 16.4645 29.0133 14.4942 30.7487 13.1204C32.484 11.7466 34.7978 11.0597 37.69 11.0597C39.6061 11.0597 41.4318 11.3309 43.1672 11.8732L45.499 12.5239V9.86669C45.499 8.0229 44.9025 6.59487 43.7094 5.5826C42.5526 4.57032 40.998 4.06419 39.0458 4.06419C37.202 4.06419 35.6836 4.53417 34.4905 5.47414C33.2975 6.41411 32.5383 7.7156 32.2129 9.37863L27.983 8.18559C28.4891 5.69106 29.7183 3.72074 31.6706 2.27463C33.6229 0.828521 36.0812 0.105469 39.0458 0.105469C42.5164 0.105469 45.2098 1.00929 47.1259 2.81692C49.042 4.5884 50 7.06486 50 10.2463V26.3523H45.499V22.2851C44.8482 23.6951 43.7275 24.8158 42.1368 25.6473C40.5461 26.4788 38.7204 26.8946 36.6597 26.8946C34.2736 26.8946 32.2491 26.1896 30.586 24.7797C28.9591 23.2974 28.1457 21.3813 28.1457 19.0314ZM45.499 16.7538V16.2115L43.1129 15.5065C41.3414 14.9642 39.7507 14.6931 38.3408 14.6931C36.6778 14.6931 35.3582 15.0546 34.3821 15.7776C33.4421 16.4645 32.9721 17.4587 32.9721 18.7602C32.9721 19.9894 33.424 20.9656 34.3278 21.6886C35.2678 22.4117 36.5693 22.7732 38.2323 22.7732C40.4015 22.7732 42.1549 22.2309 43.4925 21.1463C44.8302 20.0617 45.499 18.5976 45.499 16.7538Z" fill="black"/>
</svg>
